<svg xmlns="http://www.w3.org/2000/svg" xmlns:xlink="http://www.w3.org/1999/xlink" viewBox="0 0 783.3 297.2"><defs><style>.\32 d5b5b07-d649-4433-bdfb-d94d57bef29b,.\37 01da268-276c-46a2-b4fb-90e024085e94,.a0806300-fabc-4a83-8c34-b79115cb6bcf,.eb64a088-8571-4598-8846-94eb9b043fdc{fill:none;}.\34 352e261-eb3f-4583-a293-a1c6e41c8dd0{isolation:isolate;}.dc7d6707-0ec1-47f5-9ce0-278ba2601e5b{fill:#f6fbfd;}.\36 07d52f0-cd31-46a5-811f-74b3c4d47b93,.e45e460c-6231-4086-9f6e-5cd43bbe679e{fill:#222944;}.\31 61d751c-fdc2-4789-bf4d-a47446f5a40e{clip-path:url(#e4a9bbc6-21aa-4ebc-9943-df2aff0edaa9);}.\32 d5b5b07-d649-4433-bdfb-d94d57bef29b,.\37 01da268-276c-46a2-b4fb-90e024085e94{stroke:#a2dced;}.\32 d5b5b07-d649-4433-bdfb-d94d57bef29b,.\37 01da268-276c-46a2-b4fb-90e024085e94,.eb64a088-8571-4598-8846-94eb9b043fdc{stroke-miterlimit:10;}.\32 d5b5b07-d649-4433-bdfb-d94d57bef29b{stroke-width:0.61px;}.\37 01da268-276c-46a2-b4fb-90e024085e94{stroke-width:0.55px;}.\36 07d52f0-cd31-46a5-811f-74b3c4d47b93{mix-blend-mode:hard-light;}.\37 4f4e945-4e88-4eb5-ae0e-a6977cda4f64{fill:#a2dced;}.\35 3515dfa-e99a-4268-8653-cd23f1de3b5d{fill:#f16632;}.eb64a088-8571-4598-8846-94eb9b043fdc{stroke:#fff;stroke-width:1.34px;}.b81da217-13d1-4ccf-90f4-446ff4f9dd4e{clip-path:url(#194a6624-dec2-4222-87d0-6678be04c4e0);}.\38 9cac434-f473-42de-b6f9-f35bed4a1474{fill:#4e4e4e;}.\39 f369fe8-2594-4c27-aa97-a97058088dbd{fill:#f5845a;}.e3c72dda-09b8-40be-bb00-cab76bbf7ca7{fill:#f26531;}.\39 c11b3a2-bfc7-4d6f-8eb9-10efabc5f4a3{fill:#b4b4b4;}.\35 d88ad0f-bc0a-4c39-b06c-ef3a8a91da87{fill:#e6e6e5;}.ff23dd2b-c836-4096-b53d-6370ef8ed763{fill:#c7eaf3;}.\34 8187e09-aad8-4544-ab1c-006a0f08e3dd{fill:#afe0ee;}.\30 a73cfab-8b83-42c4-942d-9e8049daec9a{fill:#f5f7fa;}.\30 3d5c375-501e-49d4-aa22-82725eb5f32d{fill:#e7e9ed;}.dc475c5f-e5f5-4442-9d9b-83e09bdeaafc{fill:#fed2a7;}.e4ea4e50-98b7-4750-9676-d7cf910a386c{fill:#e2b18d;}.\36 79a34d0-1f42-4f20-bed7-47eeb18c85af{fill:#0e3855;}.d25da381-83c9-42e8-ae6a-f078e3117455{fill:#175079;}.\36 56d39ad-97a6-4a98-8fb7-dca1e77dfba8{fill:#fff;}</style><clipPath id="e4a9bbc6-21aa-4ebc-9943-df2aff0edaa9"><rect class="a0806300-fabc-4a83-8c34-b79115cb6bcf" x="308.7" y="-245.5" width="178.3" height="709.44" transform="translate(288.6 507.1) rotate(-90)"/></clipPath><clipPath id="194a6624-dec2-4222-87d0-6678be04c4e0"><rect class="a0806300-fabc-4a83-8c34-b79115cb6bcf" y="21.7" width="186.5" height="275.44" transform="translate(186.5 318.9) rotate(180)"/></clipPath></defs><title>Artboard 1</title><g class="4352e261-eb3f-4583-a293-a1c6e41c8dd0"><g id="fdbd6926-7561-4167-a2c7-aa4644666910" data-name="base"><rect class="dc7d6707-0ec1-47f5-9ce0-278ba2601e5b" x="0.1" width="783.2" height="197.95"/><rect class="e45e460c-6231-4086-9f6e-5cd43bbe679e" x="0.1" y="39.6" width="783.2" height="158.86"/><g class="161d751c-fdc2-4789-bf4d-a47446f5a40e"><line class="2d5b5b07-d649-4433-bdfb-d94d57bef29b" x1="295.6" y1="-366.4" x2="-211.5" y2="149"/><line class="2d5b5b07-d649-4433-bdfb-d94d57bef29b" x1="300.8" y1="-363" x2="-206.3" y2="152.4"/><line class="2d5b5b07-d649-4433-bdfb-d94d57bef29b" x1="306.1" y1="-359.6" x2="-201.1" y2="155.8"/><line class="2d5b5b07-d649-4433-bdfb-d94d57bef29b" x1="311.3" y1="-356.2" x2="-195.9" y2="159.2"/><line class="2d5b5b07-d649-4433-bdfb-d94d57bef29b" x1="316.5" y1="-352.8" x2="-190.7" y2="162.7"/><line class="2d5b5b07-d649-4433-bdfb-d94d57bef29b" x1="321.7" y1="-349.3" x2="-185.5" y2="166.1"/><line class="2d5b5b07-d649-4433-bdfb-d94d57bef29b" x1="326.9" y1="-345.9" x2="-180.3" y2="169.5"/><line class="2d5b5b07-d649-4433-bdfb-d94d57bef29b" x1="332.1" y1="-342.5" x2="-175.1" y2="172.9"/><line class="2d5b5b07-d649-4433-bdfb-d94d57bef29b" x1="337.7" y1="-338.9" x2="-169.5" y2="176.5"/><line class="2d5b5b07-d649-4433-bdfb-d94d57bef29b" x1="342.9" y1="-335.5" x2="-164.3" y2="179.9"/><line class="2d5b5b07-d649-4433-bdfb-d94d57bef29b" x1="348.1" y1="-332.1" x2="-159.1" y2="183.4"/><line class="2d5b5b07-d649-4433-bdfb-d94d57bef29b" x1="353.3" y1="-328.6" x2="-153.8" y2="186.8"/><line class="2d5b5b07-d649-4433-bdfb-d94d57bef29b" x1="358.5" y1="-325.2" x2="-148.6" y2="190.2"/><line class="2d5b5b07-d649-4433-bdfb-d94d57bef29b" x1="363.8" y1="-321.8" x2="-143.4" y2="193.6"/><line class="2d5b5b07-d649-4433-bdfb-d94d57bef29b" x1="369" y1="-318.4" x2="-138.2" y2="197"/><line class="2d5b5b07-d649-4433-bdfb-d94d57bef29b" x1="374.2" y1="-315" x2="-133" y2="200.4"/><line class="2d5b5b07-d649-4433-bdfb-d94d57bef29b" x1="379.4" y1="-311.6" x2="-127.8" y2="203.8"/><line class="2d5b5b07-d649-4433-bdfb-d94d57bef29b" x1="384.6" y1="-308.2" x2="-122.6" y2="207.2"/><line class="2d5b5b07-d649-4433-bdfb-d94d57bef29b" x1="389.8" y1="-304.8" x2="-117.4" y2="210.6"/><line class="2d5b5b07-d649-4433-bdfb-d94d57bef29b" x1="395" y1="-301.4" x2="-112.2" y2="214"/><line class="2d5b5b07-d649-4433-bdfb-d94d57bef29b" x1="400.2" y1="-298" x2="-107" y2="217.4"/><line class="2d5b5b07-d649-4433-bdfb-d94d57bef29b" x1="405.4" y1="-294.6" x2="-101.8" y2="220.8"/><line class="2d5b5b07-d649-4433-bdfb-d94d57bef29b" x1="410.6" y1="-291.2" x2="-96.6" y2="224.2"/><line class="2d5b5b07-d649-4433-bdfb-d94d57bef29b" x1="415.8" y1="-287.8" x2="-91.3" y2="227.6"/><line class="2d5b5b07-d649-4433-bdfb-d94d57bef29b" x1="421.4" y1="-284.1" x2="-85.8" y2="231.3"/><line class="2d5b5b07-d649-4433-bdfb-d94d57bef29b" x1="426.6" y1="-280.7" x2="-80.5" y2="234.7"/><line class="2d5b5b07-d649-4433-bdfb-d94d57bef29b" x1="431.8" y1="-277.3" x2="-75.3" y2="238.1"/><line class="2d5b5b07-d649-4433-bdfb-d94d57bef29b" x1="437" y1="-273.9" x2="-70.1" y2="241.5"/><line class="2d5b5b07-d649-4433-bdfb-d94d57bef29b" x1="442.3" y1="-270.5" x2="-64.9" y2="244.9"/><line class="2d5b5b07-d649-4433-bdfb-d94d57bef29b" x1="447.5" y1="-267.1" x2="-59.7" y2="248.3"/><line class="2d5b5b07-d649-4433-bdfb-d94d57bef29b" x1="452.7" y1="-263.6" x2="-54.5" y2="251.8"/><line class="2d5b5b07-d649-4433-bdfb-d94d57bef29b" x1="457.9" y1="-260.2" x2="-49.3" y2="255.2"/><line class="2d5b5b07-d649-4433-bdfb-d94d57bef29b" x1="463.4" y1="-256.6" x2="-43.7" y2="258.8"/><line class="2d5b5b07-d649-4433-bdfb-d94d57bef29b" x1="468.6" y1="-253.2" x2="-38.5" y2="262.2"/><line class="2d5b5b07-d649-4433-bdfb-d94d57bef29b" x1="473.9" y1="-249.8" x2="-33.3" y2="265.6"/><line class="2d5b5b07-d649-4433-bdfb-d94d57bef29b" x1="479.1" y1="-246.4" x2="-28.1" y2="269"/><line class="2d5b5b07-d649-4433-bdfb-d94d57bef29b" x1="484.3" y1="-243" x2="-22.9" y2="272.4"/><line class="2d5b5b07-d649-4433-bdfb-d94d57bef29b" x1="489.5" y1="-239.6" x2="-17.7" y2="275.8"/><line class="2d5b5b07-d649-4433-bdfb-d94d57bef29b" x1="494.7" y1="-236.2" x2="-12.5" y2="279.2"/><line class="2d5b5b07-d649-4433-bdfb-d94d57bef29b" x1="499.9" y1="-232.7" x2="-7.3" y2="282.7"/><line class="2d5b5b07-d649-4433-bdfb-d94d57bef29b" x1="505.5" y1="-229.1" x2="-1.7" y2="286.3"/><line class="2d5b5b07-d649-4433-bdfb-d94d57bef29b" x1="510.7" y1="-225.7" x2="3.5" y2="289.7"/><line class="2d5b5b07-d649-4433-bdfb-d94d57bef29b" x1="515.9" y1="-222.3" x2="8.7" y2="293.1"/><line class="2d5b5b07-d649-4433-bdfb-d94d57bef29b" x1="521.1" y1="-218.9" x2="14" y2="296.5"/><line class="2d5b5b07-d649-4433-bdfb-d94d57bef29b" x1="526.3" y1="-215.5" x2="19.2" y2="299.9"/><line class="2d5b5b07-d649-4433-bdfb-d94d57bef29b" x1="531.6" y1="-212" x2="24.4" y2="303.4"/><line class="2d5b5b07-d649-4433-bdfb-d94d57bef29b" x1="536.8" y1="-208.6" x2="29.6" y2="306.8"/><line class="2d5b5b07-d649-4433-bdfb-d94d57bef29b" x1="542" y1="-205.2" x2="34.8" y2="310.2"/><line class="2d5b5b07-d649-4433-bdfb-d94d57bef29b" x1="547.1" y1="-201.8" x2="40" y2="313.6"/><line class="2d5b5b07-d649-4433-bdfb-d94d57bef29b" x1="552.4" y1="-198.4" x2="45.2" y2="317"/><line class="2d5b5b07-d649-4433-bdfb-d94d57bef29b" x1="557.6" y1="-195" x2="50.4" y2="320.4"/><line class="2d5b5b07-d649-4433-bdfb-d94d57bef29b" x1="562.8" y1="-191.6" x2="55.6" y2="323.8"/><line class="2d5b5b07-d649-4433-bdfb-d94d57bef29b" x1="568" y1="-188.2" x2="60.8" y2="327.2"/><line class="2d5b5b07-d649-4433-bdfb-d94d57bef29b" x1="573.2" y1="-184.8" x2="66" y2="330.6"/><line class="2d5b5b07-d649-4433-bdfb-d94d57bef29b" x1="578.4" y1="-181.4" x2="71.2" y2="334"/><line class="2d5b5b07-d649-4433-bdfb-d94d57bef29b" x1="583.6" y1="-178" x2="76.5" y2="337.4"/><line class="2d5b5b07-d649-4433-bdfb-d94d57bef29b" x1="589.2" y1="-174.3" x2="82" y2="341.1"/><line class="2d5b5b07-d649-4433-bdfb-d94d57bef29b" x1="594.4" y1="-170.9" x2="87.2" y2="344.5"/><line class="2d5b5b07-d649-4433-bdfb-d94d57bef29b" x1="599.6" y1="-167.5" x2="92.5" y2="347.9"/><line class="2d5b5b07-d649-4433-bdfb-d94d57bef29b" x1="604.8" y1="-164.1" x2="97.7" y2="351.3"/><line class="2d5b5b07-d649-4433-bdfb-d94d57bef29b" x1="610.1" y1="-160.7" x2="102.9" y2="354.7"/><line class="2d5b5b07-d649-4433-bdfb-d94d57bef29b" x1="615.3" y1="-157.3" x2="108.1" y2="358.1"/><line class="2d5b5b07-d649-4433-bdfb-d94d57bef29b" x1="620.5" y1="-153.9" x2="113.3" y2="361.5"/><line class="2d5b5b07-d649-4433-bdfb-d94d57bef29b" x1="625.7" y1="-150.5" x2="118.5" y2="364.9"/><line class="2d5b5b07-d649-4433-bdfb-d94d57bef29b" x1="71.4" y1="-515.5" x2="-435.8" y2="-0.1"/><line class="2d5b5b07-d649-4433-bdfb-d94d57bef29b" x1="76.6" y1="-512.1" x2="-430.5" y2="3.3"/><line class="2d5b5b07-d649-4433-bdfb-d94d57bef29b" x1="81.8" y1="-508.7" x2="-425.3" y2="6.7"/><line class="2d5b5b07-d649-4433-bdfb-d94d57bef29b" x1="87.4" y1="-505" x2="-419.8" y2="10.4"/><line class="2d5b5b07-d649-4433-bdfb-d94d57bef29b" x1="92.6" y1="-501.6" x2="-414.5" y2="13.8"/><line class="2d5b5b07-d649-4433-bdfb-d94d57bef29b" x1="97.8" y1="-498.2" x2="-409.3" y2="17.2"/><line class="2d5b5b07-d649-4433-bdfb-d94d57bef29b" x1="103.1" y1="-494.8" x2="-404.1" y2="20.6"/><line class="2d5b5b07-d649-4433-bdfb-d94d57bef29b" x1="108.3" y1="-491.4" x2="-398.9" y2="24"/><line class="2d5b5b07-d649-4433-bdfb-d94d57bef29b" x1="113.5" y1="-488" x2="-393.7" y2="27.4"/><line class="2d5b5b07-d649-4433-bdfb-d94d57bef29b" x1="118.7" y1="-484.6" x2="-388.5" y2="30.8"/><line class="2d5b5b07-d649-4433-bdfb-d94d57bef29b" x1="123.9" y1="-481.2" x2="-383.3" y2="34.2"/><line class="2d5b5b07-d649-4433-bdfb-d94d57bef29b" x1="129.4" y1="-477.5" x2="-377.7" y2="37.9"/><line class="2d5b5b07-d649-4433-bdfb-d94d57bef29b" x1="134.7" y1="-474.1" x2="-372.5" y2="41.3"/><line class="2d5b5b07-d649-4433-bdfb-d94d57bef29b" x1="139.9" y1="-470.7" x2="-367.3" y2="44.7"/><line class="2d5b5b07-d649-4433-bdfb-d94d57bef29b" x1="145.1" y1="-467.3" x2="-362.1" y2="48.1"/><line class="2d5b5b07-d649-4433-bdfb-d94d57bef29b" x1="150.3" y1="-463.9" x2="-356.9" y2="51.5"/><line class="2d5b5b07-d649-4433-bdfb-d94d57bef29b" x1="155.5" y1="-460.5" x2="-351.7" y2="54.9"/><line class="2d5b5b07-d649-4433-bdfb-d94d57bef29b" x1="160.7" y1="-457.1" x2="-346.5" y2="58.3"/><line class="2d5b5b07-d649-4433-bdfb-d94d57bef29b" x1="165.9" y1="-453.7" x2="-341.3" y2="61.7"/><line class="2d5b5b07-d649-4433-bdfb-d94d57bef29b" x1="171.5" y1="-450" x2="-335.7" y2="65.4"/><line class="2d5b5b07-d649-4433-bdfb-d94d57bef29b" x1="176.7" y1="-446.6" x2="-330.5" y2="68.8"/><line class="2d5b5b07-d649-4433-bdfb-d94d57bef29b" x1="181.9" y1="-443.2" x2="-325.2" y2="72.2"/><line class="2d5b5b07-d649-4433-bdfb-d94d57bef29b" x1="187.1" y1="-439.8" x2="-320" y2="75.6"/><line class="2d5b5b07-d649-4433-bdfb-d94d57bef29b" x1="192.3" y1="-436.4" x2="-314.8" y2="79"/><line class="2d5b5b07-d649-4433-bdfb-d94d57bef29b" x1="197.6" y1="-433" x2="-309.6" y2="82.4"/><line class="2d5b5b07-d649-4433-bdfb-d94d57bef29b" x1="202.8" y1="-429.6" x2="-304.4" y2="85.8"/><line class="2d5b5b07-d649-4433-bdfb-d94d57bef29b" x1="208" y1="-426.1" x2="-299.2" y2="89.3"/><line class="2d5b5b07-d649-4433-bdfb-d94d57bef29b" x1="213.2" y1="-422.8" x2="-294" y2="92.6"/><line class="2d5b5b07-d649-4433-bdfb-d94d57bef29b" x1="218.4" y1="-419.4" x2="-288.8" y2="96"/><line class="2d5b5b07-d649-4433-bdfb-d94d57bef29b" x1="223.6" y1="-415.9" x2="-283.6" y2="99.5"/><line class="2d5b5b07-d649-4433-bdfb-d94d57bef29b" x1="228.8" y1="-412.5" x2="-278.4" y2="102.9"/><line class="2d5b5b07-d649-4433-bdfb-d94d57bef29b" x1="234" y1="-409.1" x2="-273.2" y2="106.3"/><line class="2d5b5b07-d649-4433-bdfb-d94d57bef29b" x1="239.2" y1="-405.7" x2="-268" y2="109.7"/><line class="2d5b5b07-d649-4433-bdfb-d94d57bef29b" x1="244.4" y1="-402.3" x2="-262.7" y2="113.1"/><line class="2d5b5b07-d649-4433-bdfb-d94d57bef29b" x1="249.6" y1="-398.9" x2="-257.5" y2="116.5"/><line class="2d5b5b07-d649-4433-bdfb-d94d57bef29b" x1="255.2" y1="-395.2" x2="-252" y2="120.2"/><line class="2d5b5b07-d649-4433-bdfb-d94d57bef29b" x1="260.4" y1="-391.8" x2="-246.7" y2="123.6"/><line class="2d5b5b07-d649-4433-bdfb-d94d57bef29b" x1="265.6" y1="-388.4" x2="-241.5" y2="127"/><line class="2d5b5b07-d649-4433-bdfb-d94d57bef29b" x1="270.8" y1="-385" x2="-236.3" y2="130.4"/><line class="2d5b5b07-d649-4433-bdfb-d94d57bef29b" x1="276.1" y1="-381.6" x2="-231.1" y2="133.8"/><line class="2d5b5b07-d649-4433-bdfb-d94d57bef29b" x1="281.3" y1="-378.2" x2="-225.9" y2="137.2"/><line class="2d5b5b07-d649-4433-bdfb-d94d57bef29b" x1="286.5" y1="-374.8" x2="-220.7" y2="140.6"/><line class="2d5b5b07-d649-4433-bdfb-d94d57bef29b" x1="291.7" y1="-371.4" x2="-215.5" y2="144"/><line class="2d5b5b07-d649-4433-bdfb-d94d57bef29b" x1="630.2" y1="-146.9" x2="123" y2="368.5"/><line class="2d5b5b07-d649-4433-bdfb-d94d57bef29b" x1="635.4" y1="-143.5" x2="128.2" y2="371.9"/><line class="2d5b5b07-d649-4433-bdfb-d94d57bef29b" x1="640.6" y1="-140.1" x2="133.4" y2="375.3"/><line class="2d5b5b07-d649-4433-bdfb-d94d57bef29b" x1="645.8" y1="-136.7" x2="138.6" y2="378.7"/><line class="2d5b5b07-d649-4433-bdfb-d94d57bef29b" x1="651" y1="-133.3" x2="143.8" y2="382.1"/><line class="2d5b5b07-d649-4433-bdfb-d94d57bef29b" x1="656.2" y1="-129.9" x2="149.1" y2="385.5"/><line class="2d5b5b07-d649-4433-bdfb-d94d57bef29b" x1="661.4" y1="-126.5" x2="154.3" y2="388.9"/><line class="2d5b5b07-d649-4433-bdfb-d94d57bef29b" x1="666.6" y1="-123.1" x2="159.5" y2="392.3"/><line class="2d5b5b07-d649-4433-bdfb-d94d57bef29b" x1="672.2" y1="-119.4" x2="165.1" y2="396"/><line class="2d5b5b07-d649-4433-bdfb-d94d57bef29b" x1="677.4" y1="-116" x2="170.3" y2="399.4"/><line class="2d5b5b07-d649-4433-bdfb-d94d57bef29b" x1="682.7" y1="-112.6" x2="175.5" y2="402.8"/><line class="2d5b5b07-d649-4433-bdfb-d94d57bef29b" x1="687.9" y1="-109.2" x2="180.7" y2="406.2"/><line class="2d5b5b07-d649-4433-bdfb-d94d57bef29b" x1="693.1" y1="-105.8" x2="185.9" y2="409.6"/><line class="2d5b5b07-d649-4433-bdfb-d94d57bef29b" x1="698.3" y1="-102.4" x2="191.1" y2="413"/><line class="2d5b5b07-d649-4433-bdfb-d94d57bef29b" x1="703.5" y1="-99" x2="196.3" y2="416.4"/><line class="2d5b5b07-d649-4433-bdfb-d94d57bef29b" x1="708.7" y1="-95.5" x2="201.5" y2="419.9"/><line class="2d5b5b07-d649-4433-bdfb-d94d57bef29b" x1="713.9" y1="-92.2" x2="206.7" y2="423.2"/><line class="2d5b5b07-d649-4433-bdfb-d94d57bef29b" x1="719.1" y1="-88.8" x2="211.9" y2="426.7"/><line class="2d5b5b07-d649-4433-bdfb-d94d57bef29b" x1="724.3" y1="-85.3" x2="217.1" y2="430.1"/><line class="2d5b5b07-d649-4433-bdfb-d94d57bef29b" x1="729.5" y1="-81.9" x2="222.3" y2="433.5"/><line class="2d5b5b07-d649-4433-bdfb-d94d57bef29b" x1="734.7" y1="-78.5" x2="227.6" y2="436.9"/><line class="2d5b5b07-d649-4433-bdfb-d94d57bef29b" x1="739.9" y1="-75.1" x2="232.8" y2="440.3"/><line class="2d5b5b07-d649-4433-bdfb-d94d57bef29b" x1="745.2" y1="-71.7" x2="238" y2="443.7"/><line class="2d5b5b07-d649-4433-bdfb-d94d57bef29b" x1="750.4" y1="-68.3" x2="243.2" y2="447.1"/><line class="2d5b5b07-d649-4433-bdfb-d94d57bef29b" x1="755.9" y1="-64.6" x2="248.8" y2="450.8"/><line class="2d5b5b07-d649-4433-bdfb-d94d57bef29b" x1="761.2" y1="-61.2" x2="254" y2="454.2"/><line class="2d5b5b07-d649-4433-bdfb-d94d57bef29b" x1="766.4" y1="-57.8" x2="259.2" y2="457.6"/><line class="2d5b5b07-d649-4433-bdfb-d94d57bef29b" x1="771.6" y1="-54.4" x2="264.4" y2="461"/><line class="2d5b5b07-d649-4433-bdfb-d94d57bef29b" x1="776.8" y1="-51" x2="269.6" y2="464.4"/><line class="2d5b5b07-d649-4433-bdfb-d94d57bef29b" x1="782" y1="-47.6" x2="274.8" y2="467.8"/><line class="2d5b5b07-d649-4433-bdfb-d94d57bef29b" x1="787.2" y1="-44.2" x2="280" y2="471.2"/><line class="2d5b5b07-d649-4433-bdfb-d94d57bef29b" x1="792.4" y1="-40.8" x2="285.3" y2="474.6"/><line class="2d5b5b07-d649-4433-bdfb-d94d57bef29b" x1="798" y1="-37.2" x2="290.8" y2="478.2"/><line class="2d5b5b07-d649-4433-bdfb-d94d57bef29b" x1="803.2" y1="-33.7" x2="296" y2="481.7"/><line class="2d5b5b07-d649-4433-bdfb-d94d57bef29b" x1="808.4" y1="-30.3" x2="301.2" y2="485.1"/><line class="2d5b5b07-d649-4433-bdfb-d94d57bef29b" x1="813.6" y1="-26.9" x2="306.4" y2="488.5"/><line class="2d5b5b07-d649-4433-bdfb-d94d57bef29b" x1="818.8" y1="-23.5" x2="311.6" y2="491.9"/><line class="2d5b5b07-d649-4433-bdfb-d94d57bef29b" x1="824" y1="-20.1" x2="316.8" y2="495.3"/><line class="2d5b5b07-d649-4433-bdfb-d94d57bef29b" x1="829.2" y1="-16.7" x2="322.1" y2="498.7"/><line class="2d5b5b07-d649-4433-bdfb-d94d57bef29b" x1="834.4" y1="-13.3" x2="327.3" y2="502.1"/><line class="2d5b5b07-d649-4433-bdfb-d94d57bef29b" x1="840" y1="-9.6" x2="332.9" y2="505.8"/><line class="2d5b5b07-d649-4433-bdfb-d94d57bef29b" x1="845.2" y1="-6.2" x2="338.1" y2="509.2"/><line class="2d5b5b07-d649-4433-bdfb-d94d57bef29b" x1="850.4" y1="-2.8" x2="343.3" y2="512.6"/><line class="2d5b5b07-d649-4433-bdfb-d94d57bef29b" x1="855.7" y1="0.6" x2="348.5" y2="516"/><line class="2d5b5b07-d649-4433-bdfb-d94d57bef29b" x1="860.9" y1="4" x2="353.7" y2="519.4"/><line class="2d5b5b07-d649-4433-bdfb-d94d57bef29b" x1="866.1" y1="7.4" x2="358.9" y2="522.8"/><line class="2d5b5b07-d649-4433-bdfb-d94d57bef29b" x1="871.3" y1="10.8" x2="364.1" y2="526.2"/><line class="2d5b5b07-d649-4433-bdfb-d94d57bef29b" x1="876.5" y1="14.2" x2="369.3" y2="529.6"/><line class="2d5b5b07-d649-4433-bdfb-d94d57bef29b" x1="881.7" y1="17.6" x2="374.5" y2="533"/><line class="2d5b5b07-d649-4433-bdfb-d94d57bef29b" x1="886.9" y1="21" x2="379.7" y2="536.4"/><line class="2d5b5b07-d649-4433-bdfb-d94d57bef29b" x1="892.1" y1="24.4" x2="384.9" y2="539.8"/><line class="2d5b5b07-d649-4433-bdfb-d94d57bef29b" x1="897.3" y1="27.8" x2="390.1" y2="543.2"/><line class="2d5b5b07-d649-4433-bdfb-d94d57bef29b" x1="902.5" y1="31.3" x2="395.4" y2="546.7"/><line class="2d5b5b07-d649-4433-bdfb-d94d57bef29b" x1="907.7" y1="34.7" x2="400.6" y2="550.1"/><line class="2d5b5b07-d649-4433-bdfb-d94d57bef29b" x1="912.9" y1="38.1" x2="405.8" y2="553.5"/><line class="2d5b5b07-d649-4433-bdfb-d94d57bef29b" x1="918.2" y1="41.5" x2="411" y2="556.9"/><line class="2d5b5b07-d649-4433-bdfb-d94d57bef29b" x1="923.7" y1="45.1" x2="416.6" y2="560.5"/><line class="2d5b5b07-d649-4433-bdfb-d94d57bef29b" x1="928.9" y1="48.5" x2="421.8" y2="563.9"/><line class="2d5b5b07-d649-4433-bdfb-d94d57bef29b" x1="934.2" y1="51.9" x2="427" y2="567.4"/><line class="2d5b5b07-d649-4433-bdfb-d94d57bef29b" x1="939.4" y1="55.4" x2="432.2" y2="570.8"/><line class="2d5b5b07-d649-4433-bdfb-d94d57bef29b" x1="944.6" y1="58.8" x2="437.4" y2="574.2"/><line class="2d5b5b07-d649-4433-bdfb-d94d57bef29b" x1="949.8" y1="62.2" x2="442.6" y2="577.6"/><line class="2d5b5b07-d649-4433-bdfb-d94d57bef29b" x1="955" y1="65.6" x2="447.8" y2="581"/><line class="2d5b5b07-d649-4433-bdfb-d94d57bef29b" x1="960.2" y1="69" x2="453" y2="584.4"/><line class="701da268-276c-46a2-b4fb-90e024085e94" x1="24.2" y1="-311.8" x2="-194.8" y2="188.7"/><line class="701da268-276c-46a2-b4fb-90e024085e94" x1="30.6" y1="-309.5" x2="-188.5" y2="191.1"/><line class="701da268-276c-46a2-b4fb-90e024085e94" x1="36.9" y1="-307.1" x2="-182.1" y2="193.4"/><line class="701da268-276c-46a2-b4fb-90e024085e94" x1="43.3" y1="-304.7" x2="-175.8" y2="195.8"/><line class="701da268-276c-46a2-b4fb-90e024085e94" x1="49.7" y1="-302.4" x2="-169.4" y2="198.1"/><line class="701da268-276c-46a2-b4fb-90e024085e94" x1="56" y1="-300" x2="-163" y2="200.5"/><line class="701da268-276c-46a2-b4fb-90e024085e94" x1="62.4" y1="-297.7" x2="-156.7" y2="202.9"/><line class="701da268-276c-46a2-b4fb-90e024085e94" x1="68.7" y1="-295.3" x2="-150.3" y2="205.2"/><line class="701da268-276c-46a2-b4fb-90e024085e94" x1="75.6" y1="-292.8" x2="-143.5" y2="207.7"/><line class="701da268-276c-46a2-b4fb-90e024085e94" x1="81.9" y1="-290.4" x2="-137.1" y2="210.1"/><line class="701da268-276c-46a2-b4fb-90e024085e94" x1="88.3" y1="-288" x2="-130.8" y2="212.5"/><line class="701da268-276c-46a2-b4fb-90e024085e94" x1="94.6" y1="-285.7" x2="-124.4" y2="214.8"/><line class="701da268-276c-46a2-b4fb-90e024085e94" x1="101" y1="-283.3" x2="-118" y2="217.2"/><line class="701da268-276c-46a2-b4fb-90e024085e94" x1="107.4" y1="-281" x2="-111.7" y2="219.6"/><line class="701da268-276c-46a2-b4fb-90e024085e94" x1="113.7" y1="-278.6" x2="-105.3" y2="221.9"/><line class="701da268-276c-46a2-b4fb-90e024085e94" x1="120.1" y1="-276.2" x2="-99" y2="224.3"/><line class="701da268-276c-46a2-b4fb-90e024085e94" x1="126.4" y1="-273.9" x2="-92.6" y2="226.6"/><line class="701da268-276c-46a2-b4fb-90e024085e94" x1="132.8" y1="-271.5" x2="-86.3" y2="229"/><line class="701da268-276c-46a2-b4fb-90e024085e94" x1="139.1" y1="-269.2" x2="-79.9" y2="231.3"/><line class="701da268-276c-46a2-b4fb-90e024085e94" x1="145.5" y1="-266.8" x2="-73.6" y2="233.7"/><line class="701da268-276c-46a2-b4fb-90e024085e94" x1="151.8" y1="-264.5" x2="-67.2" y2="236.1"/><line class="701da268-276c-46a2-b4fb-90e024085e94" x1="158.2" y1="-262.1" x2="-60.8" y2="238.4"/><line class="701da268-276c-46a2-b4fb-90e024085e94" x1="164.6" y1="-259.7" x2="-54.5" y2="240.8"/><line class="701da268-276c-46a2-b4fb-90e024085e94" x1="170.9" y1="-257.4" x2="-48.1" y2="243.2"/><line class="701da268-276c-46a2-b4fb-90e024085e94" x1="177.7" y1="-254.8" x2="-41.3" y2="245.7"/><line class="701da268-276c-46a2-b4fb-90e024085e94" x1="184.1" y1="-252.5" x2="-34.9" y2="248"/><line class="701da268-276c-46a2-b4fb-90e024085e94" x1="190.5" y1="-250.1" x2="-28.6" y2="250.4"/><line class="701da268-276c-46a2-b4fb-90e024085e94" x1="196.8" y1="-247.8" x2="-22.2" y2="252.8"/><line class="701da268-276c-46a2-b4fb-90e024085e94" x1="203.2" y1="-245.4" x2="-15.9" y2="255.1"/><line class="701da268-276c-46a2-b4fb-90e024085e94" x1="209.6" y1="-243" x2="-9.5" y2="257.5"/><line class="701da268-276c-46a2-b4fb-90e024085e94" x1="215.9" y1="-240.7" x2="-3.1" y2="259.8"/><line class="701da268-276c-46a2-b4fb-90e024085e94" x1="222.3" y1="-238.3" x2="3.2" y2="262.2"/><line class="701da268-276c-46a2-b4fb-90e024085e94" x1="229" y1="-235.8" x2="10" y2="264.7"/><line class="701da268-276c-46a2-b4fb-90e024085e94" x1="235.4" y1="-233.4" x2="16.4" y2="267.1"/><line class="701da268-276c-46a2-b4fb-90e024085e94" x1="241.8" y1="-231.1" x2="22.7" y2="269.4"/><line class="701da268-276c-46a2-b4fb-90e024085e94" x1="248.1" y1="-228.7" x2="29.1" y2="271.8"/><line class="701da268-276c-46a2-b4fb-90e024085e94" x1="254.5" y1="-226.4" x2="35.4" y2="274.2"/><line class="701da268-276c-46a2-b4fb-90e024085e94" x1="260.9" y1="-224" x2="41.8" y2="276.5"/><line class="701da268-276c-46a2-b4fb-90e024085e94" x1="267.2" y1="-221.6" x2="48.2" y2="278.9"/><line class="701da268-276c-46a2-b4fb-90e024085e94" x1="273.6" y1="-219.3" x2="54.5" y2="281.2"/><line class="701da268-276c-46a2-b4fb-90e024085e94" x1="280.4" y1="-216.7" x2="61.3" y2="283.8"/><line class="701da268-276c-46a2-b4fb-90e024085e94" x1="286.8" y1="-214.4" x2="67.7" y2="286.1"/><line class="701da268-276c-46a2-b4fb-90e024085e94" x1="293.1" y1="-212" x2="74.1" y2="288.5"/><line class="701da268-276c-46a2-b4fb-90e024085e94" x1="299.5" y1="-209.7" x2="80.4" y2="290.9"/><line class="701da268-276c-46a2-b4fb-90e024085e94" x1="305.8" y1="-207.3" x2="86.8" y2="293.2"/><line class="701da268-276c-46a2-b4fb-90e024085e94" x1="312.2" y1="-204.9" x2="93.1" y2="295.6"/><line class="701da268-276c-46a2-b4fb-90e024085e94" x1="318.6" y1="-202.6" x2="99.5" y2="297.9"/><line class="701da268-276c-46a2-b4fb-90e024085e94" x1="324.9" y1="-200.2" x2="105.9" y2="300.3"/><line class="701da268-276c-46a2-b4fb-90e024085e94" x1="374" y1="-208.3" x2="155" y2="292.2"/><line class="701da268-276c-46a2-b4fb-90e024085e94" x1="337.6" y1="-195.5" x2="118.5" y2="305"/><line class="701da268-276c-46a2-b4fb-90e024085e94" x1="344" y1="-193.2" x2="124.9" y2="307.4"/><line class="701da268-276c-46a2-b4fb-90e024085e94" x1="350.3" y1="-190.8" x2="131.3" y2="309.7"/><line class="701da268-276c-46a2-b4fb-90e024085e94" x1="356.7" y1="-188.4" x2="137.6" y2="312.1"/><line class="701da268-276c-46a2-b4fb-90e024085e94" x1="322.8" y1="-177.7" x2="103.8" y2="322.8"/><line class="701da268-276c-46a2-b4fb-90e024085e94" x1="369.4" y1="-183.7" x2="150.4" y2="316.8"/><line class="701da268-276c-46a2-b4fb-90e024085e94" x1="375.8" y1="-181.3" x2="156.7" y2="319.2"/><line class="701da268-276c-46a2-b4fb-90e024085e94" x1="382.6" y1="-178.8" x2="163.5" y2="321.7"/><line class="701da268-276c-46a2-b4fb-90e024085e94" x1="388.9" y1="-176.5" x2="169.9" y2="324.1"/><line class="701da268-276c-46a2-b4fb-90e024085e94" x1="395.3" y1="-174.1" x2="176.3" y2="326.4"/><line class="701da268-276c-46a2-b4fb-90e024085e94" x1="401.7" y1="-171.7" x2="182.6" y2="328.8"/><line class="701da268-276c-46a2-b4fb-90e024085e94" x1="408" y1="-169.4" x2="189" y2="331.1"/><line class="701da268-276c-46a2-b4fb-90e024085e94" x1="414.4" y1="-167" x2="195.3" y2="333.5"/><line class="701da268-276c-46a2-b4fb-90e024085e94" x1="420.8" y1="-164.6" x2="201.7" y2="335.9"/><line class="701da268-276c-46a2-b4fb-90e024085e94" x1="427.1" y1="-162.3" x2="208.1" y2="338.2"/><line class="701da268-276c-46a2-b4fb-90e024085e94" x1="433.8" y1="-160.2" x2="214.7" y2="340.3"/><line class="701da268-276c-46a2-b4fb-90e024085e94" x1="440.2" y1="-157.8" x2="221.1" y2="342.7"/><line class="701da268-276c-46a2-b4fb-90e024085e94" x1="446.5" y1="-155.5" x2="227.5" y2="345.1"/><line class="701da268-276c-46a2-b4fb-90e024085e94" x1="452.9" y1="-153.1" x2="233.8" y2="347.4"/><line class="701da268-276c-46a2-b4fb-90e024085e94" x1="459.2" y1="-150.7" x2="240.2" y2="349.8"/><line class="701da268-276c-46a2-b4fb-90e024085e94" x1="465.6" y1="-148.4" x2="246.6" y2="352.2"/><line class="701da268-276c-46a2-b4fb-90e024085e94" x1="472" y1="-146" x2="252.9" y2="354.5"/><line class="701da268-276c-46a2-b4fb-90e024085e94" x1="478.3" y1="-143.6" x2="259.3" y2="356.9"/><line class="701da268-276c-46a2-b4fb-90e024085e94" x1="485.1" y1="-141.1" x2="266.1" y2="359.4"/><line class="701da268-276c-46a2-b4fb-90e024085e94" x1="491.5" y1="-138.8" x2="272.5" y2="361.8"/><line class="701da268-276c-46a2-b4fb-90e024085e94" x1="497.9" y1="-136.4" x2="278.8" y2="364.1"/><line class="701da268-276c-46a2-b4fb-90e024085e94" x1="504.2" y1="-134" x2="285.2" y2="366.5"/><line class="701da268-276c-46a2-b4fb-90e024085e94" x1="510.6" y1="-131.7" x2="291.5" y2="368.8"/><line class="701da268-276c-46a2-b4fb-90e024085e94" x1="516.9" y1="-129.3" x2="297.9" y2="371.2"/><line class="701da268-276c-46a2-b4fb-90e024085e94" x1="523.3" y1="-126.9" x2="304.3" y2="373.6"/><line class="701da268-276c-46a2-b4fb-90e024085e94" x1="529.7" y1="-124.6" x2="310.6" y2="375.9"/><line class="701da268-276c-46a2-b4fb-90e024085e94" x1="536" y1="-122.2" x2="316.9" y2="378.3"/><line class="701da268-276c-46a2-b4fb-90e024085e94" x1="542.3" y1="-119.9" x2="323.3" y2="380.6"/><line class="701da268-276c-46a2-b4fb-90e024085e94" x1="548.7" y1="-117.5" x2="329.7" y2="383"/><line class="701da268-276c-46a2-b4fb-90e024085e94" x1="555.1" y1="-115.2" x2="336" y2="385.4"/><line class="701da268-276c-46a2-b4fb-90e024085e94" x1="561.4" y1="-112.8" x2="342.4" y2="387.7"/><line class="701da268-276c-46a2-b4fb-90e024085e94" x1="567.8" y1="-110.4" x2="348.7" y2="390.1"/><line class="701da268-276c-46a2-b4fb-90e024085e94" x1="574.2" y1="-108.1" x2="355.1" y2="392.4"/><line class="701da268-276c-46a2-b4fb-90e024085e94" x1="580.5" y1="-105.7" x2="361.5" y2="394.8"/><line class="701da268-276c-46a2-b4fb-90e024085e94" x1="587.3" y1="-103.2" x2="368.3" y2="397.3"/><line class="701da268-276c-46a2-b4fb-90e024085e94" x1="593.7" y1="-100.8" x2="374.6" y2="399.7"/><line class="701da268-276c-46a2-b4fb-90e024085e94" x1="600.1" y1="-98.5" x2="381" y2="402.1"/><line class="701da268-276c-46a2-b4fb-90e024085e94" x1="606.4" y1="-96.1" x2="387.4" y2="404.4"/><line class="701da268-276c-46a2-b4fb-90e024085e94" x1="612.8" y1="-93.7" x2="393.7" y2="406.8"/><line class="701da268-276c-46a2-b4fb-90e024085e94" x1="619.1" y1="-91.4" x2="400.1" y2="409.1"/><line class="701da268-276c-46a2-b4fb-90e024085e94" x1="625.5" y1="-89" x2="406.5" y2="411.5"/><line class="701da268-276c-46a2-b4fb-90e024085e94" x1="631.9" y1="-86.7" x2="412.8" y2="413.9"/><line class="701da268-276c-46a2-b4fb-90e024085e94" x1="638.6" y1="-84.1" x2="419.6" y2="416.4"/><line class="701da268-276c-46a2-b4fb-90e024085e94" x1="645" y1="-81.8" x2="425.9" y2="418.7"/><line class="701da268-276c-46a2-b4fb-90e024085e94" x1="651.4" y1="-79.4" x2="432.3" y2="421.1"/><line class="701da268-276c-46a2-b4fb-90e024085e94" x1="657.7" y1="-77.1" x2="438.7" y2="423.5"/><line class="701da268-276c-46a2-b4fb-90e024085e94" x1="664.1" y1="-74.7" x2="445" y2="425.8"/><line class="701da268-276c-46a2-b4fb-90e024085e94" x1="670.4" y1="-72.3" x2="451.4" y2="428.2"/><line class="701da268-276c-46a2-b4fb-90e024085e94" x1="676.8" y1="-70" x2="457.8" y2="430.5"/><line class="701da268-276c-46a2-b4fb-90e024085e94" x1="683.2" y1="-67.6" x2="464.1" y2="432.9"/><line class="701da268-276c-46a2-b4fb-90e024085e94" x1="690" y1="-65.1" x2="470.9" y2="435.4"/><line class="701da268-276c-46a2-b4fb-90e024085e94" x1="696.3" y1="-62.7" x2="477.3" y2="437.8"/><line class="701da268-276c-46a2-b4fb-90e024085e94" x1="702.7" y1="-60.4" x2="483.6" y2="440.1"/><line class="701da268-276c-46a2-b4fb-90e024085e94" x1="709.1" y1="-58" x2="490" y2="442.5"/><line class="701da268-276c-46a2-b4fb-90e024085e94" x1="715.4" y1="-55.6" x2="496.4" y2="444.9"/><line class="701da268-276c-46a2-b4fb-90e024085e94" x1="721.8" y1="-53.3" x2="502.7" y2="447.2"/><line class="701da268-276c-46a2-b4fb-90e024085e94" x1="728.1" y1="-50.9" x2="509.1" y2="449.6"/><line class="701da268-276c-46a2-b4fb-90e024085e94" x1="734.5" y1="-48.6" x2="515.5" y2="452"/><line class="701da268-276c-46a2-b4fb-90e024085e94" x1="783.6" y1="-56.7" x2="564.5" y2="443.8"/><line class="701da268-276c-46a2-b4fb-90e024085e94" x1="747.2" y1="-43.9" x2="528.1" y2="456.7"/><line class="701da268-276c-46a2-b4fb-90e024085e94" x1="753.5" y1="-41.5" x2="534.5" y2="459"/><line class="701da268-276c-46a2-b4fb-90e024085e94" x1="759.9" y1="-39.1" x2="540.9" y2="461.4"/><line class="701da268-276c-46a2-b4fb-90e024085e94" x1="766.3" y1="-36.8" x2="547.2" y2="463.7"/><line class="701da268-276c-46a2-b4fb-90e024085e94" x1="732.4" y1="-26" x2="513.4" y2="474.5"/><line class="701da268-276c-46a2-b4fb-90e024085e94" x1="779" y1="-32.1" x2="559.9" y2="468.5"/><line class="701da268-276c-46a2-b4fb-90e024085e94" x1="785.4" y1="-29.7" x2="566.3" y2="470.8"/><line class="701da268-276c-46a2-b4fb-90e024085e94" x1="792.2" y1="-27.2" x2="573.1" y2="473.4"/><line class="701da268-276c-46a2-b4fb-90e024085e94" x1="798.5" y1="-24.8" x2="579.5" y2="475.7"/><line class="701da268-276c-46a2-b4fb-90e024085e94" x1="804.9" y1="-22.4" x2="585.8" y2="478.1"/><line class="701da268-276c-46a2-b4fb-90e024085e94" x1="811.3" y1="-20.1" x2="592.2" y2="480.4"/><line class="701da268-276c-46a2-b4fb-90e024085e94" x1="817.6" y1="-17.7" x2="598.6" y2="482.8"/><line class="701da268-276c-46a2-b4fb-90e024085e94" x1="824" y1="-15.4" x2="604.9" y2="485.2"/><line class="701da268-276c-46a2-b4fb-90e024085e94" x1="830.3" y1="-13" x2="611.3" y2="487.5"/><line class="701da268-276c-46a2-b4fb-90e024085e94" x1="836.7" y1="-10.6" x2="617.7" y2="489.9"/></g><rect class="607d52f0-cd31-46a5-811f-74b3c4d47b93" x="0.1" y="40.4" width="783.2" height="157.92"/><rect class="74f4e945-4e88-4eb5-ae0e-a6977cda4f64" x="0.1" y="38.8" width="783.2" height="3.44"/><path class="53515dfa-e99a-4268-8653-cd23f1de3b5d" d="M271.7,9.5a57.8,57.8,0,0,0-56.1,88.7l-16.7,23.6,26.3-12.2A57.8,57.8,0,1,0,271.7,9.5"/><circle class="eb64a088-8571-4598-8846-94eb9b043fdc" cx="264.5" cy="67.3" r="51.7"/><g class="b81da217-13d1-4ccf-90f4-446ff4f9dd4e"><path class="89cac434-f473-42de-b6f9-f35bed4a1474" d="M98.7,196.6l-1.7.5L83.9,158.9H84a5.7,5.7,0,0,0,4-7.1l-4.2-15.2a5.7,5.7,0,1,0-11,3.1l.4,1.5-36,10c2.5,4.7,9.2,6.8,14.5,5.3l10,6.2,15,40.9a9.7,9.7,0,0,0,10.8,4.8l13.5-3.7a4.2,4.2,0,1,0-2.2-8.1Z"/><path class="9f369fe8-2594-4c27-aa97-a97058088dbd" d="M76,89.1l-54,15a3.8,3.8,0,0,0-2.7,4.7L25,129.3l57.7-16Z"/><path class="e3c72dda-09b8-40be-bb00-cab76bbf7ca7" d="M25,129.3l5.7,20.6a3.8,3.8,0,0,0,4.7,2.7l54-15-6.7-24.2Z"/><path class="9c11b3a2-bfc7-4d6f-8eb9-10efabc5f4a3" d="M165.1,108.3a17.2,17.2,0,0,0,12-21.2L144,96.3A17.2,17.2,0,0,0,165.1,108.3Z"/><path class="5d88ad0f-bc0a-4c39-b06c-ef3a8a91da87" d="M155.9,75.1a17.2,17.2,0,0,0-12,21.2l33.1-9.2A17.2,17.2,0,0,0,155.9,75.1Z"/><polygon class="ff23dd2b-c836-4096-b53d-6370ef8ed763" points="145.2 36.7 76 89.1 82.7 113.3 160.5 91.7 145.2 36.7"/><polygon class="48187e09-aad8-4544-ab1c-006a0f08e3dd" points="82.7 113.3 89.4 137.6 175.8 146.7 160.5 91.7 82.7 113.3"/><path class="9f369fe8-2594-4c27-aa97-a97058088dbd" d="M153.3,34.4a4.2,4.2,0,1,0-8.1,2.2l15.3,55,8.1-2.2Z"/><path class="e3c72dda-09b8-40be-bb00-cab76bbf7ca7" d="M160.5,91.7l15.3,55a4.2,4.2,0,0,0,8.1-2.2l-15.3-55Z"/><path class="9c11b3a2-bfc7-4d6f-8eb9-10efabc5f4a3" d="M17.6,140.9a3.8,3.8,0,0,0,4.7,2.7l6.1-1.7L25,129.3l-9.8,2.7Z"/><path class="5d88ad0f-bc0a-4c39-b06c-ef3a8a91da87" d="M15.4,118.5a3.8,3.8,0,0,0-2.7,4.7l2.4,8.8,9.8-2.7-3.5-12.5Z"/><path class="0a73cfab-8b83-42c4-942d-9e8049daec9a" d="M35.4,118.6a1.9,1.9,0,0,0-1.3,2.4l1.5,5.4,3.7-1-1.5-5.4A1.9,1.9,0,0,0,35.4,118.6Z"/><path class="03d5c375-501e-49d4-aa22-82725eb5f32d" d="M37.1,131.8a1.9,1.9,0,1,0,3.7-1l-1.5-5.4-3.7,1Z"/><path class="0a73cfab-8b83-42c4-942d-9e8049daec9a" d="M43.6,116.3a1.9,1.9,0,0,0-1.3,2.4l1.5,5.4,3.7-1L46,117.7A1.9,1.9,0,0,0,43.6,116.3Z"/><path class="03d5c375-501e-49d4-aa22-82725eb5f32d" d="M45.3,129.5a1.9,1.9,0,1,0,3.7-1l-1.5-5.4-3.7,1Z"/><path class="0a73cfab-8b83-42c4-942d-9e8049daec9a" d="M54.2,115.4a1.9,1.9,0,1,0-3.7,1l1.5,5.4,3.7-1Z"/><path class="03d5c375-501e-49d4-aa22-82725eb5f32d" d="M52,121.8l1.5,5.4a1.9,1.9,0,1,0,3.7-1l-1.5-5.4Z"/><path class="dc475c5f-e5f5-4442-9d9b-83e09bdeaafc" d="M101.4,168.3a5.5,5.5,0,0,0-5.7-4,5.5,5.5,0,0,0-4.5-9.8l-11,3H80l-18.4,5.1-8.1-5.1h0L40.4,170.8l-20.3,5.6,9.5,34.2,21.8-6,1.4.8a13.1,13.1,0,0,0,9,1.5l36.9-10.3a5.4,5.4,0,0,0-.9-10.6l.9-.3a5.5,5.5,0,0,0-1-10.7A5.4,5.4,0,0,0,101.4,168.3Z"/><path class="e4ea4e50-98b7-4750-9676-d7cf910a386c" d="M87.2,156.6l-24.6,6.8-1-.6,26.1-7.3A4.4,4.4,0,0,1,87.2,156.6Z"/><polygon class="e4ea4e50-98b7-4750-9676-d7cf910a386c" points="81.1 168.3 81.2 168.5 95.6 164.4 81.1 168.3"/><polygon class="e4ea4e50-98b7-4750-9676-d7cf910a386c" points="84 178.7 84.1 178.9 97.7 175 84 178.7"/><polygon class="e4ea4e50-98b7-4750-9676-d7cf910a386c" points="86.8 188.9 86.9 189.1 97.7 185.9 86.8 188.9"/><polygon class="ff23dd2b-c836-4096-b53d-6370ef8ed763" points="-30.4 209.5 -36 189.3 24.4 171.9 30 192.1 -30.4 209.5"/><polygon class="48187e09-aad8-4544-ab1c-006a0f08e3dd" points="30.2 170.3 15.1 174.5 20.7 194.6 -29.3 209.5 -23.7 229.5 35.6 212.1 41.4 210.5 30.2 170.3"/><rect class="679a34d0-1f42-4f20-bed7-47eeb18c85af" x="38.3" y="189.2" width="6.8" height="19.38" transform="matrix(0.96, -0.27, 0.27, 0.96, -51.7, 18.41)"/><rect class="d25da381-83c9-42e8-ae6a-f078e3117455" x="33.1" y="170.5" width="6.8" height="19.42" transform="translate(-46.9 16.3) rotate(-15.5)"/></g><path class="656d39ad-97a6-4a98-8fb7-dca1e77dfba8" d="M239.2,58.9l-4.9-7.2h-3.9v7.2h-1.5V41.4h6.5c3,0,5.3,1.9,5.3,5.1a4.8,4.8,0,0,1-4.9,5l5.1,7.3Zm0-12.4a3.6,3.6,0,0,0-3.9-3.8h-4.9v7.5h4.9A3.7,3.7,0,0,0,239.2,46.5Z"/><path class="656d39ad-97a6-4a98-8fb7-dca1e77dfba8" d="M244.5,58.9V41.4h11.1v1.4H246v6.5h9.4v1.4H246v6.9h9.6v1.4Z"/><path class="656d39ad-97a6-4a98-8fb7-dca1e77dfba8" d="M259.3,58.9V41.4h11.1v1.4h-9.6v6.5h9.4v1.4h-9.4v8.3Z"/><path class="656d39ad-97a6-4a98-8fb7-dca1e77dfba8" d="M273.5,58.9V41.4h11.1v1.4H275v6.5h9.4v1.4H275v6.9h9.6v1.4Z"/><path class="656d39ad-97a6-4a98-8fb7-dca1e77dfba8" d="M298.5,58.9l-4.9-7.2h-3.9v7.2h-1.5V41.4h6.5c3,0,5.3,1.9,5.3,5.1a4.8,4.8,0,0,1-4.9,5l5.1,7.3Zm0-12.4a3.6,3.6,0,0,0-3.9-3.8h-4.9v7.5h4.9A3.7,3.7,0,0,0,298.6,46.5Z"/><path class="656d39ad-97a6-4a98-8fb7-dca1e77dfba8" d="M227.8,76.9V65h8.7v2.7h-5.6v1.9h5.5v2.7h-5.5v4.7Z"/><path class="656d39ad-97a6-4a98-8fb7-dca1e77dfba8" d="M244.8,76.9l-2-4h-1.6v4h-3.1V65h5.9a3.8,3.8,0,0,1,4.1,4,3.6,3.6,0,0,1-2.4,3.6l2.4,4.4Zm.3-7.9a1.3,1.3,0,0,0-1.5-1.3h-2.4v2.5h2.4A1.3,1.3,0,0,0,245.1,69Z"/><path class="656d39ad-97a6-4a98-8fb7-dca1e77dfba8" d="M249.9,76.9V65H253V76.9Z"/><path class="656d39ad-97a6-4a98-8fb7-dca1e77dfba8" d="M255.1,76.9V65h8.7v2.7h-5.6v1.9h5.5v2.7h-5.5v2h5.6v2.7Z"/><path class="656d39ad-97a6-4a98-8fb7-dca1e77dfba8" d="M273.7,76.9l-5-6.9v6.9h-3.1V65h3.1l4.8,6.5V65h3.1V76.9Z"/><path class="656d39ad-97a6-4a98-8fb7-dca1e77dfba8" d="M278.8,76.9V65h5c3.7,0,6.4,2.2,6.4,5.9s-2.7,5.9-6.4,5.9ZM287,71a3,3,0,0,0-3.3-3.3h-1.9v6.5h1.9A3.2,3.2,0,0,0,287,71Z"/><path class="656d39ad-97a6-4a98-8fb7-dca1e77dfba8" d="M290.9,75.2l1.6-2.3a5.4,5.4,0,0,0,3.8,1.6c1,0,1.7-.4,1.7-1s-.9-.8-2-1-4.7-.9-4.7-3.8,1.7-3.8,4.7-3.8a7.2,7.2,0,0,1,4.8,1.7l-1.7,2.2a5.6,5.6,0,0,0-3.5-1.2c-.9,0-1.3.4-1.3.9s.9.8,2,1,4.7,1,4.7,3.8-1.8,4-4.9,4A7.3,7.3,0,0,1,290.9,75.2Z"/><path class="656d39ad-97a6-4a98-8fb7-dca1e77dfba8" d="M234.5,93.9l-.7-.7a5.2,5.2,0,0,1-2.9.9c-2.1,0-3.8-1.1-3.8-3.3s1.1-2.6,2.4-3.2a5.5,5.5,0,0,1-.7-2.4c0-1.5,1.4-2.8,3.4-2.8s3.2.9,3.2,2.5-1.4,2.5-2.7,3.1l.8,1,.8,1a8.9,8.9,0,0,0,.9-2l2,1a13.5,13.5,0,0,1-1.6,2.6l2.2,2.3Zm-2-2.2-1.1-1.3-1-1.3a1.7,1.7,0,0,0-.6,1.4,1.5,1.5,0,0,0,1.5,1.6A2.5,2.5,0,0,0,232.5,91.7Zm-.8-5.2c.8-.4,1.4-.8,1.4-1.5a.8.8,0,0,0-.8-.8.9.9,0,0,0-1,1A3.1,3.1,0,0,0,231.7,86.6Z"/><path class="656d39ad-97a6-4a98-8fb7-dca1e77dfba8" d="M243.1,93.9V82.6h8.3v2.5H246v1.8h5.2v2.5H246v4.4Z"/><path class="656d39ad-97a6-4a98-8fb7-dca1e77dfba8" d="M259.8,93.9l-.6-1.6h-4.4l-.6,1.6h-3.3l4.2-11.3h3.7l4.3,11.3ZM257,85.5l-1.4,4.2h2.9Z"/><path class="656d39ad-97a6-4a98-8fb7-dca1e77dfba8" d="M273.8,93.9V86.6l-2.9,7.3h-1.3l-2.8-7.3v7.3h-2.9V82.6h4l2.3,6.1,2.4-6.1h4V93.9Z"/><path class="656d39ad-97a6-4a98-8fb7-dca1e77dfba8" d="M278.7,93.9V82.6h2.9V93.9Z"/><path class="656d39ad-97a6-4a98-8fb7-dca1e77dfba8" d="M283.6,93.9V82.6h2.9v8.7h4.5v2.5Z"/><path class="656d39ad-97a6-4a98-8fb7-dca1e77dfba8" d="M293.5,93.9V89.3l-4.3-6.7h3.3l2.5,4.2,2.4-4.2h3.3l-4.3,6.7v4.5Z"/></g></g></svg>